<svg xmlns="http://www.w3.org/2000/svg" viewBox="0 0 100 100">
  <defs>
    <linearGradient id="bg" x1="0" y1="0" x2="1" y2="1">
      <stop offset="0%" stop-color="#6c5ce7"/>
      <stop offset="100%" stop-color="#fd79a8"/>
    </linearGradient>
  </defs>
  <rect width="100" height="100" rx="18" fill="url(#bg)"/>
  <!-- fa-solid fa-qrcode (Font Awesome 6, viewBox 0 0 448 512) -->
  <g transform="translate(15,10) scale(0.155)">
    <path fill="white" d="M48 32C21.5 32 0 53.5 0 80v96c0 26.5 21.5 48 48 48h96c26.5 0 48-21.5 48-48V80c0-26.5-21.5-48-48-48H48zm80 64v64H64V96h64zM48 288c-26.5 0-48 21.5-48 48v96c0 26.5 21.5 48 48 48h96c26.5 0 48-21.5 48-48V336c0-26.5-21.5-48-48-48H48zm80 64v64H64V352h64zM256 80v96c0 26.5 21.5 48 48 48h96c26.5 0 48-21.5 48-48V80c0-26.5-21.5-48-48-48H304c-26.5 0-48 21.5-48 48zm64 16h64v64H320V96zm32 352v32h32V448H352zm96 0H416v32h32V448zM416 288v32H352V288H256v96 96h64V384h32v32h96V352 320 288H416z"/>
  </g>
</svg>
